# xmcd
#
# Track frame offsets:
#	150
#	11837
#	20805
#	32850
#	43275
#	53640
#	64995
#	74815
#	84172
#	95285
#	107052
#	121360
#	130632
#	142687
#	153840
#
# Disc length: 2231 seconds
#
# Revision: 0
# Processed by: cddbd v1.4PL0 Copyright (c) Steve Scherf et al.
# Submitted via: dBpowerAMP V4.0
#
DISCID=ca08b50f
DTITLE=Tony Douglas - His 'N' Hers
DYEAR=1964
DGENRE=Country
TTITLE0=his and hers
TTITLE1=your love for me is losing light
TTITLE2=home away from home
TTITLE3=it's just about time
TTITLE4=slowly
TTITLE5=it's my life
TTITLE6=hey waiter
TTITLE7=take the hand off the clock
TTITLE8=begging to you
TTITLE9=window up above
TTITLE10=hope my guilty don't show
TTITLE11=gabby abby
TTITLE12=thank you lord
TTITLE13=state trooper sammy young
TTITLE14=ode to jimmie rodgers
EXTD=\n 
EXTT0=
EXTT1=
EXTT2=
EXTT3=
EXTT4=
EXTT5=
EXTT6=
EXTT7=
EXTT8=
EXTT9=
EXTT10=
EXTT11=
EXTT12=
EXTT13=
EXTT14=
PLAYORDER=
